<?xml version="1.0" encoding="UTF-8"?>
<svg id="Layer_1" xmlns="http://www.w3.org/2000/svg" version="1.1" viewBox="0 0 24 24">
  <!-- Generator: Adobe Illustrator 29.0.1, SVG Export Plug-In . SVG Version: 2.1.0 Build 192)  -->
  <defs>
    <style>
      .st0 {
        fill: #9c9d9f;
      }

      .st1 {
        fill: #fff;
      }

      .st2 {
        fill: #be1828;
      }
    </style>
  </defs>
  <path class="st2" d="M2.18,12.12c.06-.37.26-.71.38-1.06,0,0,0,0,0,0t0,0s0,0,0,0c0,0,0,0,0,0,0,0,0,0,0,0,0,0,0,0,0,0,0,0,0,0,0,0,0,0,0,0,0,0,0,0,0,0,0,0,0,0,0,0,0,0,0,0,0,0,0,0,0,0,0,0,0,0,0,0,0,0,0,0,0,0,0,0,0,0,0,0,0,0,0,0,0,0,0,0,0,0,0,0,0,0,0,0,0,0,0,0,0,0,0,0,0,0,0,0,0,0,0,0,0,0,0,0,0,0,0,0t0,0s0,0,0,0h0c.03.13.02.28.03.41,0,.19.02.39.02.58v.02h-.03c-.14,0-.28-.02-.43-.02M2.58,9.63s-.04.04-.06.06c-.13.15-.19.39-.26.56,0,0,0,0,0,0,0,0,0,0,0,0,0,0,0,0,0,0-.2.45-.39.89-.58,1.35-.06.17-.13.33-.19.5h0s-.1,0-.17,0c-.08,0-.16,0-.24,0,0,0,0,0,0,0h0c-.11,0-.2,0-.27.02,0,0,0,0-.01,0,0,0,0,0-.01,0-.04,0-.05.04-.05.07,0,.01,0,.02,0,.03-.06.41.24.23.5.34.03.01.05.03.04.06,0,0,0,.02,0,.03-.03.23-.29.77-.33,1.04,0,.06,0,.1,0,.13.08.15.34.2.53.21.04-.09.07-.18.11-.27.13-.39.26-.78.4-1.16h0s0-.02,0-.02c0,0,.02,0,.02,0h0s0,0,.02,0c.11,0,.59-.07.63-.01.04.06.03.16.03.24.01.17.02.33.03.5.02.28,0,.61.36.67,0,0,0,0,.01,0,.01,0,.03,0,.04,0,.02,0,.04,0,.06,0h.02s.06,0,.09-.02c0,0,0,0,.01,0,0,0,0,0,0,0,.04-.03.07-.1.08-.19.04-.27-.03-.74-.04-.87-.06-.6-.12-1.21-.19-1.81-.04-.28-.07-.57-.11-.85-.03-.12-.1-.21-.13-.32,0-.02,0-.05,0-.08,0-.02,0-.04,0-.06,0-.04,0-.09-.01-.12-.02-.03-.07-.04-.13-.05h-.21Z"/>
  <path class="st2" d="M5.34,12.97c.03-.19.04-.36.04-.46,0-.17-.05-.22-.12-.22-.17,0-.35.19-.51.5-.21.4-.26.79-.31,1.21h-.55c.04-.21.07-.5.09-.77l.07-.97h-.28l.04-.42h.8c-.01.26-.05.52-.11.77h.02c.19-.56.5-.81.91-.81.28,0,.5.12.5.59,0,.14,0,.3-.03.46l-.09.73h.25l-.04.42h-.83l.15-1.02Z"/>
  <path class="st2" d="M7.62,10.82h.87l-.23,2.76h.26l-.04.42h-.75c.03-.28.07-.57.14-.82h-.02c-.18.6-.5.86-.84.86s-.62-.25-.62-.81c0-.93.56-1.44,1.24-1.44.07,0,.15,0,.23.02l.05-.58h-.33l.04-.42ZM7.12,13.54c.29,0,.66-.71.69-1.29-.07-.02-.14-.03-.21-.03-.42,0-.65.45-.65.95,0,.24.06.37.17.37"/>
  <path class="st2" d="M10.41,13.9c-.19.09-.42.14-.68.14-.61,0-.95-.29-.95-.91,0-.81.45-1.33,1.17-1.33.48,0,.69.23.69.52,0,.42-.39.8-1.29.86.01.3.24.39.48.39s.46-.07.66-.17l-.07.5ZM9.35,12.82c.55-.07.71-.25.71-.43,0-.11-.08-.17-.21-.17-.32,0-.48.28-.5.61"/>
  <path class="st2" d="M10.84,11.83h.8c-.02.23-.05.5-.1.77h.02c.14-.62.43-.79.78-.79.05,0,.09,0,.14.02l-.07.52s-.06,0-.09,0c-.32,0-.65.19-.82,1.64h-.55c.02-.23.05-.51.07-.74l.06-1h-.28l.04-.42Z"/>
  <path class="st2" d="M12.63,11.83h.8c-.01.26-.05.52-.11.77h.02c.19-.56.5-.81.91-.81.3,0,.45.24.45.51,0,.04,0,.08,0,.12h.01c.13-.33.4-.63.77-.63.28,0,.5.12.5.59,0,.14,0,.3-.03.46l-.09.73h.25l-.04.42h-.83l.15-1.02c.03-.19.04-.36.04-.46,0-.17-.05-.22-.12-.22-.14,0-.32.19-.48.5-.21.4-.26.79-.31,1.21h-.53l.15-1.02c.03-.19.04-.36.04-.46,0-.17-.05-.22-.12-.22-.14,0-.32.19-.48.5-.21.4-.26.79-.31,1.21h-.55c.04-.21.07-.5.09-.77l.07-.97h-.28l.04-.42Z"/>
  <path class="st2" d="M18.47,11.88c-.03.14-.05.29-.07.43l-.1,1.26h.26l-.04.42h-.75c.03-.28.07-.57.14-.82h-.02c-.18.6-.5.86-.84.86s-.62-.25-.62-.81c0-.93.56-1.44,1.24-1.44.22,0,.41.04.59.09h.21ZM17.17,13.54c.29,0,.66-.71.69-1.29-.07-.02-.14-.03-.21-.03-.42,0-.65.45-.65.95,0,.24.06.37.17.37"/>
  <path class="st2" d="M19.19,11.37l.55-.04-.04.5h.57l-.04.42h-.58l-.06.66c-.01.15-.03.34-.03.43,0,.16.07.22.19.22s.24-.05.38-.12l-.05.45c-.17.07-.33.11-.5.11-.39,0-.57-.2-.57-.57,0-.11.02-.28.03-.44l.06-.76h-.29l.04-.42h.29l.04-.46Z"/>
  <path class="st2" d="M20.72,11.37l.55-.04-.04.5h.57l-.04.42h-.58l-.06.66c-.01.15-.03.34-.03.43,0,.16.07.22.19.22s.24-.05.38-.12l-.05.45c-.17.07-.33.11-.5.11-.39,0-.57-.2-.57-.57,0-.11.02-.28.03-.44l.06-.76h-.29l.04-.42h.29l.04-.46Z"/>
  <path class="st2" d="M23.29,11.14c-.5-.11-.99.26-1.49.27-.07-.51-.15-1.02-.22-1.54.5.11.99-.26,1.49-.27.07.51.15,1.02.22,1.54"/>
  <path class="st1" d="M22.88,10.24c-.11.02-.22.05-.33.09-.02-.11-.03-.21-.05-.32-.09.03-.18.06-.28.09.02.11.03.21.05.32-.11.03-.22.06-.33.08.01.09.03.18.04.28.11-.02.22-.05.33-.09.02.11.03.21.05.32.09-.03.18-.06.28-.09-.02-.11-.03-.21-.05-.32.11-.03.22-.06.33-.08-.01-.09-.03-.18-.04-.28"/>
  <path class="st0" d="M13.1,14.69s-.06-.02-.1-.02c-.1,0-.13.05-.13.09,0,.05.04.07.08.08l.08.02c.1.03.22.06.22.21,0,.13-.09.23-.29.23-.08,0-.16,0-.25-.04v-.19h.15v.09s.08.02.12.02c.09,0,.13-.04.13-.1,0-.04-.02-.06-.12-.09l-.08-.02c-.15-.04-.2-.09-.2-.2s.08-.21.28-.21c.09,0,.17.01.23.04v.17h-.13v-.09Z"/>
  <path class="st0" d="M13.45,14.65h.14s0,.11,0,.11h.14v.1h-.14v.24c0,.07.02.09.08.09.02,0,.04,0,.07-.02v.1c-.06.02-.09.03-.13.03-.1,0-.16-.05-.16-.14v-.3h-.07v-.1h.07v-.11Z"/>
  <path class="st0" d="M14.14,14.96c0-.08-.03-.1-.1-.1-.02,0-.06,0-.09.02v.07h-.12v-.13s.12-.05.21-.05c.14,0,.23.05.23.2,0,.09,0,.16,0,.23h.06v.1h-.18v-.03s0-.05,0-.07h0c-.04.08-.08.12-.17.12-.12,0-.18-.07-.18-.15,0-.08.05-.13.11-.15.05-.02.13-.02.23-.02v-.03ZM14.1,15.07c-.12,0-.15.02-.15.07,0,.03.02.06.08.06s.11-.04.11-.13h-.04Z"/>
  <path class="st0" d="M14.51,14.87h-.07v-.1h.21s0,.07,0,.12h0c.02-.09.07-.13.15-.13.02,0,.03,0,.05,0v.13s-.04,0-.05,0c-.08,0-.13.05-.13.14v.17h.07v.1h-.27v-.1h.06v-.32Z"/>
  <path class="st0" d="M14.92,15.19h.06v-.57h-.08v-.1h.22v.47l.14-.11s.01,0,.02-.01h0s-.07,0-.07,0v-.1h.27v.1h-.05l-.16.13.18.19h.06v.1h-.28v-.1h.06s-.03-.02-.04-.04l-.11-.13v.17h.05v.1h-.25v-.1Z"/>
  <path class="st0" d="M15.74,15.06c0,.08.07.14.17.14.07,0,.11-.01.17-.04v.11c-.07.02-.13.03-.2.03-.2,0-.29-.13-.29-.27,0-.16.1-.28.27-.28.18,0,.26.14.26.31h-.37ZM15.95,14.96c0-.07-.04-.11-.11-.11s-.1.04-.11.11h.22Z"/>
  <path class="st0" d="M17.25,14.78h0s-.01.06-.03.09l-.16.42h-.14l-.16-.42s-.03-.07-.03-.09h0v.41h.07v.1h-.25v-.1h.06v-.5h-.07v-.1h.26l.18.47s.02.06.03.1h0s.01-.07.04-.13l.16-.44h.26v.1h-.07v.5h.07v.1h-.27v-.1h.06v-.41Z"/>
  <path class="st0" d="M17.84,14.75c.18,0,.28.1.28.28,0,.16-.11.27-.28.27s-.28-.09-.28-.27c0-.15.11-.28.28-.28M17.84,15.19c.09,0,.12-.06.12-.15,0-.11-.04-.17-.12-.17s-.12.07-.12.17.04.15.12.15"/>
  <path class="st0" d="M18.92,15.19h.05v-.22c0-.07-.04-.1-.09-.1-.07,0-.11.06-.11.14v.18h.06v.1h-.25v-.1h.05v-.22c0-.07-.04-.1-.09-.1-.07,0-.11.06-.11.14v.18h.06v.1h-.26v-.1h.06v-.32h-.07v-.1h.21s0,.07,0,.11h0c.03-.08.1-.12.18-.12s.14.04.16.12h0c.03-.07.08-.12.18-.12.13,0,.18.08.18.21v.23h.06v.1h-.25v-.1Z"/>
  <path class="st0" d="M19.44,15.06c0,.08.07.14.17.14.07,0,.11-.01.17-.04v.11c-.07.02-.13.03-.2.03-.2,0-.29-.13-.29-.27,0-.16.1-.28.27-.28.18,0,.26.14.26.31h-.37ZM19.66,14.96c0-.07-.04-.11-.11-.11s-.1.04-.11.11h.22Z"/>
  <path class="st0" d="M19.97,14.87h-.07v-.1h.21s0,.07,0,.11h0c.03-.07.09-.12.18-.12.13,0,.18.08.18.21v.23h.06v.1h-.26v-.1h.06v-.22c0-.07-.04-.1-.09-.1-.09,0-.12.06-.12.14v.18h.06v.1h-.25v-.1h.05v-.32Z"/>
  <path class="st0" d="M20.71,14.65h.14s0,.11,0,.11h.14v.1h-.14v.24c0,.07.02.09.08.09.02,0,.04,0,.07-.02v.1c-.06.02-.09.03-.13.03-.1,0-.16-.05-.16-.14v-.3h-.07v-.1h.07v-.11Z"/>
  <path class="st0" d="M21.21,15.06c0,.08.07.14.17.14.07,0,.11-.01.17-.04v.11c-.07.02-.13.03-.2.03-.2,0-.29-.13-.29-.27,0-.16.1-.28.27-.28.18,0,.26.14.26.31h-.37ZM21.42,14.96c0-.07-.04-.11-.11-.11s-.1.04-.11.11h.22Z"/>
  <polygon class="st0" points="18.24 11.13 17.41 10.88 17.1 10.59 16.5 10.08 15.83 10.42 15.4 10.18 15.05 9.9 14.37 9.6 13.32 10.04 12.29 10.61 11.11 9.69 10.37 10.35 9.79 10.83 9.26 11.14 9.69 10.98 10.2 10.84 10.21 10.61 10.48 10.42 11.12 9.85 11.18 9.89 11.29 10.07 11.21 10.25 11.53 10.38 11.27 10.82 12.28 10.75 13.4 10.12 14.37 9.72 14.46 9.9 14.24 10.07 14.47 10.18 14.24 10.34 14.61 10.44 14.28 10.81 15.19 10.64 15.82 10.55 16.48 10.22 16.49 10.23 16.49 10.36 16.75 10.51 16.54 10.56 16.77 10.69 16.65 10.83 17.31 10.96 18.24 11.13"/>
</svg>