<?xml version="1.0" encoding="UTF-8"?>
<svg id="Layer_1" xmlns="http://www.w3.org/2000/svg" version="1.1" viewBox="0 0 24 24">
  <path d="M13.36,14.7c-1.04-5.34-8.76-4.13-8.26,1.28-3.95-.18-4.87,5.07-.98,6.03,3.52-.22,7.45.33,10.92.01,2.54-.23,3.96-3.15,2.82-5.39-.85-1.66-2.76-2.23-4.51-1.94Z" fill="#766f72"/>
  <path d="M14.18,13.53c-.24-1.06-1.11-1.77-1.85-2.5,2.67-5.25,10.03-.28,5.95,4.13-1.17-.99-2.51-1.71-4.1-1.63Z" fill="#f6c81e"/>
  <path d="M18.85,9.1l-.09-.55c.59-.47,1.6-2.4,2.24-1.09.02.25-1.61,2.35-2.15,1.64Z" fill="#f6c81e"/>
  <path d="M21.11,16.72c.45,1.17-.37,1.1-1.13.49-.34-.27-1.62-1.4-.73-1.67.82-.13,1.21.84,1.86,1.18Z" fill="#f6c81e"/>
  <path d="M10.54,7.28c.46-.13,1.9,1.26,1.9,1.67,0,.31-.21.56-.53.53s-1.92-1.38-1.67-1.9l.3-.3Z" fill="#f6c81e"/>
  <path d="M15.86,5.29c.15.21.23,1.96.14,2.25-.1.35-.56.43-.8.15-.28-.34-.43-2.33.09-2.49" fill="#f6c81e"/>
  <path d="M20.48,11.95c.24-.23,2.33-.24,2.54.02.76.94-1.82.85-2.28.77-.34-.07-.51-.55-.26-.79Z" fill="##f6c81e"/>
  <path d="M3.77,2.82c1.01-.09,2.31-.07,3.31.11.63.12,1.43.23,1.48.97.03.58-.13,2.26-.26,2.86-.25,1.16-1.02,2.33-1.95,3.05-.24.19-1.11.71-1.36.73-.38.03-1.67-.94-1.96-1.25-1.48-1.54-1.7-3.9-1.51-5.94.14-.21,1.91-.51,2.25-.54ZM5.65,3.95h-1.39v1.63h-1.63v1.39h1.63v1.63h1.39v-1.63h1.63v-1.39h-1.63v-1.63Z" fill="#fe0505"/>
</svg>
