<?xml version="1.0" encoding="UTF-8"?>
<svg id="Layer_1" xmlns="http://www.w3.org/2000/svg" version="1.1" viewBox="0 0 24 24">
  <!-- Generator: Adobe Illustrator 29.0.1, SVG Export Plug-In . SVG Version: 2.1.0 Build 192)  -->
  <defs>
    <style>
      .st0 {
        fill: #4285f4;
      }

      .st1 {
        fill: #ea4436;
      }

      .st2 {
        fill: #1c74e8;
      }

      .st3 {
        fill: #34a853;
      }

      .st4 {
        fill: #fbbc04;
      }

      .st5 {
        fill: #fff;
      }

      .st6 {
        fill: #1967d2;
      }

      .st7 {
        fill: #188038;
      }
    </style>
  </defs>
  <g id="QCUd5x.tif">
    <g>
      <rect class="st5" x="5.86" y="5.84" width="12.33" height="12.33"/>
      <path class="st3" d="M18.2,18.18v5.56H5.86v-5.56h12.33Z"/>
      <path class="st4" d="M23.73,5.84v12.33h-5.54V5.84h5.54Z"/>
      <path class="st7" d="M5.86,18.18v5.56h-3.84c-.97-.15-1.59-.75-1.69-1.74-.12-1.18-.02-2.61-.02-3.82h5.56Z"/>
      <path class="st6" d="M22.02.3c.7.06,1.26.46,1.56,1.08l.16.61v3.84h-5.54V.3c1.21,0,2.64-.1,3.82,0Z"/>
      <polygon class="st1" points="23.71 18.18 18.2 23.71 18.2 18.18 23.71 18.18"/>
      <path class="st0" d="M2.04.3c5.38.01,10.77-.02,16.16,0v5.54c-4.11,0-8.22,0-12.33,0,0,4.11,0,8.22,0,12.33H.3c-.02-5.38,0-10.77.02-16.16.03-.91.81-1.67,1.72-1.72Z"/>
      <path class="st2" d="M9.97,11.43c1.78-.22.79-2.75-.78-1.81-.27.16-.5.7-.54.71-.06.01-1.02-.38-1.04-.43-.07-.14.52-.85.65-.96,1.94-1.71,5.11.67,3.41,2.56-.09.1-.51.39-.52.42,0,.04.57.36.7.49.69.71.65,1.88.03,2.62-1.06,1.28-3.34,1.09-4.18-.35-.05-.09-.27-.53-.26-.61,0-.06,1.01-.47,1.06-.45.02,0,.11.33.15.4.77,1.38,2.88.67,2.46-.72-.12-.4-.69-.8-1.1-.8h-.86v-1.08c.26-.02.56.03.81,0Z"/>
      <path class="st2" d="M16.11,8.54v7.16h-1.17v-5.58c-.16.06-1.08.83-1.15.82-.05,0-.59-.83-.58-.88.02-.13,1.88-1.3,2.09-1.52h.81Z"/>
    </g>
  </g>
</svg>