<?xml version="1.0" encoding="UTF-8"?>
<svg id="Layer_1" xmlns="http://www.w3.org/2000/svg" version="1.1" viewBox="0 0 24 24">
  <!-- Generator: Adobe Illustrator 29.0.1, SVG Export Plug-In . SVG Version: 2.1.0 Build 192)  -->
  <defs>
    <style>
      .st0 {
        fill: #f06d5e;
      }

      .st1 {
        fill: #d8d5cb;
      }

      .st2 {
        fill: #faac01;
      }

      .st3 {
        fill: #d7d5cb;
      }

      .st4 {
        fill: #48cc5f;
      }

      .st5 {
        fill: #a9a29a;
      }

      .st6 {
        fill: #a9a29a;
      }

      .st7 {
        fill: #59c7f8;
      }

      .st8 {
        fill: #50bc3d;
      }

      .st9 {
        display: none;
      }

      .st10 {
        fill: #3394c7;
      }

      .st11 {
        fill: #fe9400;
      }
    </style>
  </defs>
  <path class="st9" d="M12,.3C5.37.3,0,5.67,0,12.3c0,5.3,3.44,9.8,8.2,11.38.6.11.82-.26.82-.58,0-.28-.01-1.04-.02-2.04-3.34.72-4.04-1.61-4.04-1.61-.55-1.38-1.33-1.75-1.33-1.75-1.09-.74.08-.73.08-.73,1.2.08,1.84,1.24,1.84,1.24,1.07,1.83,2.81,1.31,3.49,1,.11-.78.42-1.31.76-1.6-2.66-.3-5.47-1.33-5.47-5.93,0-1.31.47-2.38,1.24-3.22-.14-.3-.54-1.52.11-3.18,0,0,1.01-.32,3.3,1.23.96-.27,1.98-.4,3-.41,1.02,0,2.04.14,3,.41,2.28-1.55,3.29-1.23,3.29-1.23.65,1.65.24,2.87.12,3.18.76.84,1.23,1.91,1.23,3.22,0,4.61-2.81,5.62-5.48,5.92.42.36.81,1.1.81,2.22,0,1.61-.02,2.9-.02,3.29,0,.32.21.69.82.57,4.8-1.57,8.24-6.07,8.24-11.37C24,5.67,18.63.3,12,.3"/>
  <g class="st9">
    <path d="M2.22,13.86c-.1-.51-.16-1.04-.18-1.57-.02-.56,0-1.08.07-1.6l.07-.57-1.91-.24-.14,1.74v.65c.02.51.07,1.04.16,1.58l.17.95,1.87-.37-.11-.56Z"/>
    <path d="M21.25,15.69h0c-.22.52-.48,1.02-.76,1.48-.28.46-.6.89-.96,1.3-.35.4-.74.78-1.15,1.13-.27.23-.56.44-.87.65l-2.01-3.41h2.28l-3.21-5.63h2.31L12,2.83l-4.87,8.38h2.32l-3.22,5.63h2.25l-1.99,3.4c-.31-.2-.6-.42-.88-.65-.42-.35-.82-.74-1.19-1.17-.36-.42-.69-.87-.98-1.35-.28-.47-.53-.98-.74-1.5l-.21-.54-1.77.7.21.53c.33.86.76,1.67,1.28,2.41.51.73,1.11,1.41,1.8,2.03.9.82,1.8,1.42,2.73,1.84l.47.21,4.57-7.82h-2.29l2.51-4.39,2.5,4.39h-2.33l4.64,7.86.48-.25c.66-.34,1.27-.72,1.84-1.14.57-.43,1.09-.9,1.57-1.41.48-.51.91-1.07,1.29-1.66.38-.6.72-1.24,1.01-1.92l.23-.54-1.76-.72-.22.52ZM12,6.6l1.58,2.71h-3.15s1.57-2.71,1.57-2.71Z"/>
    <path d="M8.11,23.19l.68.22c1.13.37,2.17.55,3.22.55.55,0,1.1-.05,1.63-.14.54-.09,1.07-.24,1.59-.42l.65-.23-3.88-6.6-3.89,6.63ZM12.99,21.99c-.66.09-1.32.09-1.98,0l.99-1.68.99,1.68Z"/>
    <path d="M16.88,3.21c.53.29,1.03.64,1.51,1.04l.44.37,1.21-1.46-.44-.37c-.57-.47-1.17-.88-1.79-1.23-.63-.35-1.3-.65-1.99-.88l-.55-.19-.61,1.8.54.18c.58.2,1.14.45,1.67.75Z"/>
    <path d="M19.74,5.61c.37.46.69.93.98,1.43.28.5.52,1.03.71,1.58l.19.54,1.79-.63-.19-.54c-.23-.65-.52-1.29-.85-1.88-.33-.59-.72-1.17-1.16-1.7l-.36-.45-1.47,1.2.36.44Z"/>
    <path d="M5.34,4.49c.43-.38.88-.73,1.36-1.03.47-.3.98-.56,1.52-.78l.53-.22-.71-1.73-.52.19c-.48.17-1.21.56-1.96,1.03-.35.22-.67.44-.92.63-.31.24-.52.43-.64.59l-.28.38,1.19,1.33.43-.38Z"/>
    <path d="M23.73,10.2l-.17-.42-1.74.23.07.57c.07.57.1,1.14.08,1.7-.02.56-.09,1.13-.2,1.69l-.11.56,1.77.37.17-.47c.19-.54.25-1.78.26-2.15.02-.73.02-1.69-.14-2.08Z"/>
    <path d="M9.83,2.17l.21-.04c.56-.11,1.13-.17,1.68-.19.56-.02,1.13.02,1.69.09l.57.08.27-1.88-.57-.08c-.67-.09-1.35-.12-2.01-.11-.66.02-1.34.09-2,.22l-.57.11.37,1.86.36-.07Z"/>
    <path d="M2.53,8.78h0c.17-.51.38-1,.62-1.47.24-.47.53-.92.85-1.35l.34-.46-1.52-1.14-.34.46c-.38.51-.72,1.05-1.01,1.61-.29.56-.54,1.14-.74,1.75l-.18.55,1.8.6.18-.54Z"/>
  </g>
  <g id="f6xwk6.tif" class="st9">
    <path d="M2.98.28c2.36.58,4.58,3.37,5.75,5.44-.09,1.57-2.68,2.21-2.52,3.94,1.39,3.63,5.32,7.89,9.16,8.91,1-.41,1.89-2.02,2.45-2.83,2.06-.63,3.8,2.46,5.19,3.62.83.95,1.19,1.36.25,2.45C14.49,30.33-7.57,8.07,2.98.28Z"/>
  </g>
  <g id="O2mGHV.tif" class="st9">
    <g>
      <path class="st1" d="M23.77,5.33v13.33c0,1.2-.97,2.17-2.17,2.17H2.4c-1.2,0-2.17-.97-2.17-2.17V5.33c0-1.2.97-2.17,2.17-2.17h19.2c1.2,0,2.17.97,2.17,2.17ZM1.2,7.46c-.07.57,0,1.37,0,1.97,0,.67-.02,1.34,0,2.01,0,.18,0,.36,0,.53,1.84.09,3.8-.12,5.63,0,2.95.18,2.51,2.95,5.15,2.97s2.2-2.78,5.17-2.97c1.83-.11,3.78.09,5.63,0,0-.14.01-.29,0-.44-.05-.64.06-1.38,0-2.01-.03-.64.05-1.31-.02-1.95,0-.08-.01-.16-.01-.24.02-1.18.35-2.9-1.19-3.16l-18.78-.04c-2.04.15-1.51,1.83-1.58,3.32Z"/>
      <path class="st0" d="M22.77,11.53c.01.14,0,.29,0,.44-1.84.09-3.8-.12-5.63,0-2.97.19-2.51,2.98-5.17,2.97s-2.19-2.78-5.15-2.97c-1.83-.11-3.78.09-5.63,0,0-.18,0-.36,0-.53.13-.83.54-1.3,1.4-1.38h18.72c.9.07,1.39.57,1.46,1.47Z"/>
      <path class="st8" d="M22.77,9.52c.06.63-.05,1.36,0,2.01-.07-.9-.56-1.4-1.46-1.47H2.59c-.85.09-1.27.55-1.4,1.38-.02-.67,0-1.34,0-2.01.14-.83.58-1.27,1.43-1.35h18.66c.9.08,1.39.53,1.49,1.44Z"/>
      <path class="st2" d="M22.74,7.46c.09.67,0,1.39.03,2.07-.09-.91-.58-1.37-1.49-1.44H2.63c-.85.08-1.29.52-1.43,1.35,0-.6-.07-1.41,0-1.97.1-.84.65-1.27,1.46-1.35h18.59c.89.07,1.37.45,1.49,1.35Z"/>
      <path class="st10" d="M22.74,7.46c-.12-.9-.6-1.28-1.49-1.35H2.66c-.81.08-1.36.51-1.46,1.35.08-1.49-.46-3.17,1.58-3.32l18.78.04c1.59.27,1.19,2.1,1.18,3.28Z"/>
    </g>
  </g>
  <g id="QL0P7Z">
    <g>
      <path class="st3" d="M20.76,1.01c.05,7.12-.1,14.9.05,22-.76.36-1.38.53-2.3.6-3.59.25-9.17.24-12.76,0-3.18-.21-5.01-2.03-5.22-5.22C-.25-.61-.42-.3,18.52.47c.81.06,1.51.22,2.24.54Z"/>
      <path class="st7" d="M21.63,6.25h2.05c.08,1.89,0,3.88,0,5.78h-2.92c0-1.93,0-3.86,0-5.78h.87Z"/>
      <path class="st11" d="M23.68,12.04c0,1.9.07,3.89,0,5.78h-2.92v-5.78h2.92Z"/>
      <path class="st4" d="M23.68,17.82c-.09,2.4-.55,4.11-2.87,5.19-.1-1.73-.05-3.46-.05-5.19h2.92Z"/>
      <path class="st5" d="M21.68,1.55c-.36-.28-.5-.36-.92-.54v5.24h2.92c-.08-1.99-.33-3.44-2-4.7Z"/>
      <path class="st6" d="M9.89,4.76c9.96-.9,10.83,13.87,1.44,14.58C1.53,20.07.66,5.59,9.89,4.76ZM15.63,16.42c4.84-5.03-1.22-13.52-7.7-10.48-4.07,1.71-5.23,7.3-2.28,10.53,1.95-2.72,8.01-2.77,9.98-.05Z"/>
      <path class="st6" d="M10.32,7.84c3.73-.47,3.74,5.91-.1,5.31-2.64-.41-2.64-4.97.1-5.31Z"/>
    </g>
  </g>
</svg>