<?xml version="1.0" encoding="UTF-8"?>
<svg id="Layer_1" xmlns="http://www.w3.org/2000/svg" version="1.1" viewBox="0 0 24 24">
  <path d="M20.76,1.01c.05,7.12-.1,14.9.05,22-.76.36-1.38.53-2.3.6-3.59.25-9.17.24-12.76,0-3.18-.21-5.01-2.03-5.22-5.22C-.25-.61-.42-.3,18.52.47c.81.06,1.51.22,2.24.54Z" fill="#d7d5cb"/>
  <path d="M21.63,6.25h2.05c.08,1.89,0,3.88,0,5.78h-2.92v-5.78s.87,0,.87,0Z" fill="#59c7f8"/>
  <path d="M23.68,12.04c0,1.9.07,3.89,0,5.78h-2.92v-5.78s2.92,0,2.92,0Z" fill="#fe9400"/>
  <path d="M23.68,17.82c-.09,2.4-.55,4.11-2.87,5.19-.1-1.73-.05-3.46-.05-5.19,0,0,2.92,0,2.92,0Z" fill="#48cc5f"/>
  <path d="M21.68,1.55c-.36-.28-.5-.36-.92-.54v5.24h2.92c-.08-1.99-.33-3.44-2-4.7Z" fill="#a9a29a"/>
  <path d="M9.89,4.76c9.96-.9,10.83,13.87,1.44,14.58C1.53,20.07.66,5.59,9.89,4.76ZM15.63,16.42c4.84-5.03-1.22-13.52-7.7-10.48-4.07,1.71-5.23,7.3-2.28,10.53,1.95-2.72,8.01-2.77,9.98-.05Z" fill="#a9a29a"/>
  <path d="M10.32,7.84c3.73-.47,3.74,5.91-.1,5.31-2.64-.41-2.64-4.97.1-5.31Z" fill="#a9a29a"/>
</svg>
