<?xml version="1.0" encoding="UTF-8"?>
<svg id="Layer_1" xmlns="http://www.w3.org/2000/svg" version="1.1" viewBox="0 0 24 24">
  <!-- Generator: Adobe Illustrator 29.0.1, SVG Export Plug-In . SVG Version: 2.1.0 Build 192)  -->
  <path d="M9.47,8.83c-.05-.07-.12-.08-.18-.09-.13-.02-.26-.04-.38-.06-.11-.02-.22-.06-.33-.09-.12-.03-.18-.11-.18-.23,0-.07,0-.14,0-.21,0-.08.03-.11.11-.12.09-.01.18-.02.27-.03.37-.02.74-.03,1.12-.05.13,0,.25-.03.38-.04.06,0,.11-.04.12-.11,0-.03.02-.06.04-.09.04-.08.11-.12.2-.13.09,0,.18,0,.27.05.07.03.12.09.15.16.02.04.03.08.04.12.02.05.05.08.11.08.04,0,.08,0,.11,0,.08,0,.16,0,.23.03.16.04.24.2.2.35-.02.06-.05.11-.08.17-.01.03-.03.05-.05.08-.03.06-.03.12,0,.18.04.08.1.13.18.16.06.02.12.04.18.06.23.07.42.2.56.39.16.21.3.43.43.66.07.11.13.23.2.35.17.31.37.59.58.87.17.22.33.46.51.68.14.18.28.36.42.54.14.18.28.35.42.54.18.24.28.51.36.79.04.12.03.23-.02.34-.03.08-.09.13-.17.15-.03,0-.07.02-.1.03-.08.01-.13.06-.15.13-.02.07-.04.14-.04.22-.04.41-.04.82,0,1.23.01.12.04.24.07.35.04.14.03.26-.03.39-.02.05-.05.1-.08.15-.07.11-.16.18-.29.21-.34.1-.69.2-1.03.3-.15.04-.29.11-.43.16-.04.02-.09.04-.13.04-.07.01-.12.04-.17.08-.09.07-.17.14-.25.21-.03.02-.06.06-.1.04-.04-.02-.04-.07-.03-.1,0-.08.02-.16.03-.24,0-.02,0-.04.02-.07-.03.01-.05.02-.06.02-.09.06-.16.14-.22.23-.02.02-.04.04-.06.06-.04-.04-.04-.09-.02-.12.02-.07.05-.14.08-.21.03-.05.07-.1.11-.16-.01-.02-.02-.04-.04-.07-.07.05-.13.09-.19.13-.06.04-.1.1-.19.12,0-.04,0-.06.02-.08.04-.1.1-.19.18-.27.03-.03.05-.05.09-.09-.03,0-.05,0-.06.01-.07.03-.15.07-.22.11-.03.01-.05.02-.09.03-.02-.06.01-.09.03-.12.1-.15.23-.28.38-.38.05-.03.1-.06.15-.08.03-.01.07-.02.11-.02.32-.04.64-.07.96-.11.09-.01.18-.03.27-.06.16-.05.18-.12.06-.24-.02-.02-.05-.05-.07-.07-.05-.06-.1-.1-.18-.08-.05,0-.09-.03-.12-.07-.06-.07-.1-.15-.13-.24,0-.03-.02-.06-.03-.09,0,0-.01,0-.02,0-.1.04-.15.02-.16-.09-.02-.16,0-.32.03-.48.03-.19.09-.37.17-.54.02-.04.04-.08.03-.13-.02,0-.04.01-.05.02-.18.14-.34.28-.5.44-.12.12-.14.26-.07.42.02.04.04.08.06.12.01.03.03.06.05.09.08.17.05.29-.09.41-.12.1-.26.19-.4.24-.28.11-.56.23-.82.39-.03.02-.07.04-.11.05-.1.04-.2.05-.3,0-.12-.05-.24-.09-.36-.13-.19-.06-.37-.14-.55-.23-.05-.03-.11-.06-.16-.09-.03-.02-.06-.02-.09,0-.12.05-.25.09-.37.14-.03,0-.05.02-.08.02-.04,0-.06-.02-.05-.06,0-.02.02-.04.03-.06.06-.06.11-.12.17-.18.02-.02.03-.03.06-.05-.03,0-.04,0-.06,0-.09.02-.17.05-.26.08-.01,0-.03.01-.04.02-.03,0-.06.02-.07-.01,0-.02,0-.05.02-.06.09-.08.19-.16.28-.24.02-.01.03-.03.05-.04,0,0,0,0,0-.01-.1.02-.21.04-.31.05-.02,0-.03,0-.05.01-.02,0-.05.01-.06-.02,0-.02.01-.04.03-.06.12-.1.25-.19.39-.25.02,0,.04-.02.06-.04-.07,0-.13,0-.2,0-.03,0-.05,0-.08,0-.04,0-.05-.04-.02-.06.01-.01.02-.02.04-.03.19-.1.39-.15.61-.13.03,0,.06,0,.09.02.08.04.16.05.24.07.11.02.21.07.31.13.1.07.2.13.3.2.06.04.12.07.2.08.1.02.18-.01.26-.07.12-.1.13-.25.01-.38-.05,0-.07.04-.08.08,0,.02-.01.04-.02.07,0,.02-.02.04-.05.02,0-.01,0-.03,0-.05,0-.04,0-.09,0-.13,0-.1-.05-.19-.16-.22-.06-.02-.09-.06-.08-.12.02-.35.13-.66.37-.92.18-.19.4-.28.65-.32.09-.01.18-.03.29-.05-.03-.02-.04-.04-.05-.05-.17-.12-.35-.23-.52-.34-.05-.04-.06-.04-.11.01-.07.07-.14.15-.21.23-.31.35-.66.65-1.06.89-.16.1-.33.19-.49.28-.03.02-.06.03-.09,0,0,0-.03,0-.04,0-.03,0-.06,0-.09,0-.17,0-.33-.03-.46-.16-.11-.11-.22-.22-.34-.32-.17-.16-.34-.32-.51-.48-.03-.03-.07-.04-.11-.04-.05,0-.09-.02-.13-.02-.02,0-.05,0-.07,0-.12.02-.23.04-.35.06-.03,0-.07.02-.08-.02-.02-.04.02-.05.04-.07.12-.08.24-.17.38-.21.03,0,.03-.01.04-.05-.13-.01-.26,0-.39.04-.02,0-.04.01-.07.02-.01,0-.03,0-.04-.02,0,0,0-.02.01-.03.01-.01.02-.02.04-.03.14-.08.28-.16.45-.17.01,0,.03-.01.05-.03-.03-.01-.04-.02-.06-.02-.09-.01-.18-.02-.27-.03-.02,0-.03,0-.05,0-.02,0-.03-.02-.05-.03.01-.02.02-.04.03-.05.07-.05.15-.08.24-.09.07,0,.15,0,.22,0,.03,0,.05,0,.07-.03-.05-.04-.09-.08-.14-.12-.02-.02-.04-.03-.05-.06-.02-.03,0-.05.03-.05.03,0,.06,0,.09,0,.09.03.17.07.26.1.02,0,.04.02.06.03.19.04.35.14.51.25.13.1.26.21.39.31.05.04.1.07.16.1.09.04.14.03.21-.05.04-.05.08-.1.11-.15.11-.17.21-.34.32-.51.02-.03.04-.07.05-.11.02-.05,0-.09-.05-.12-.03-.02-.07-.03-.11-.04-.18-.04-.37-.08-.55-.12-.28-.06-.54-.16-.81-.26-.16-.06-.27-.17-.32-.33-.04-.11-.07-.22-.1-.33-.05-.17-.12-.34-.18-.5-.07-.2-.22-.32-.38-.43-.03-.02-.05-.04-.08-.06.03-.05.06-.04.1-.04.12.01.23.05.33.11.02.01.03.04.07,0-.01-.02-.02-.03-.03-.05-.07-.07-.13-.15-.2-.22-.01-.01-.03-.03-.04-.04-.02-.02-.05-.05-.03-.08.02-.03.06-.02.09,0,.15.05.28.11.39.22.03.03.06.04.11,0-.05-.06-.1-.12-.15-.19-.02-.03-.05-.06-.08-.09-.02-.02-.05-.04-.02-.07.01-.01.05-.01.07,0,.15.04.26.12.34.25.02.04.04.07.08.1,0-.04,0-.08-.01-.13-.01-.09-.02-.17-.03-.26,0-.02,0-.06.01-.07.03-.02.05,0,.07.02.15.14.23.31.21.52,0,.07,0,.11.05.16.09.1.16.2.22.32.05.1.11.18.18.25.1.1.22.15.36.15.11,0,.21,0,.32-.04.07-.02.11-.06.12-.14,0-.03,0-.07.02-.1.01-.06,0-.11-.05-.15-.05-.04-.06-.1-.06-.15,0-.14.02-.28.04-.43.01-.1.07-.17.16-.23.19-.12.36-.26.5-.42.04-.05.07-.11.1-.18.02-.04.02-.09,0-.14-.02.02-.04.02-.05.04-.04.05-.07.1-.1.15-.21.37-.66.48-.98.38-.08-.03-.16-.06-.24-.09-.07-.03-.13-.06-.2-.09-.16-.06-.32-.11-.5-.11-.07,0-.13,0-.2,0-.05,0-.09,0-.14-.02-.05-.01-.09-.03-.1-.09,0-.05.02-.1.06-.12.03-.02.07-.04.1-.04.06,0,.12,0,.17,0,.18.01.36,0,.53-.05.02,0,.05-.02.07-.03.01,0,.03-.02.04-.04-.04,0-.08,0-.12-.01-.25-.02-.51-.03-.76-.05-.3-.03-.57-.15-.78-.37-.04-.04-.08-.09-.11-.15-.05-.1,0-.18.11-.2.07,0,.13.01.19.05.06.04.12.09.17.14.11.11.24.18.39.21.13.02.26.05.39.06.16.02.32.03.48.04.03,0,.05,0,.09,0M10.37,8.29s-.03.05-.05.07c-.02.02-.03.05-.05.07-.08.09-.18.09-.26,0-.02-.02-.04-.05-.06-.08-.01-.02-.03-.04-.06-.02-.03.13.03.26.13.31.11.05.24.03.32-.06.08-.09.09-.21.03-.3M10.33,11.46c.01.08.03.17.04.25,0,.12,0,.25,0,.37,0,.04-.02.09.01.13.2-.22.12-.58-.04-.75"/>
  <path d="M13.33,9.47c.07-.43,0-.85,0-1.28.03-.02.06-.03.09,0,.03.03.06.04.1.06.14.07.29.1.45.12.19.03.58.03.75,0,0-.02,0-.03,0-.05-.01-.39-.04-.78-.16-1.16-.01-.04-.02-.08-.05-.1,0,0,0-.01,0-.03.23,0,.46.02.69.03.23,0,.46.02.7.03-.22.4-.22.83-.22,1.26.05,0,.1,0,.14,0,.24-.02.49-.04.73-.07.14-.02.28-.05.42-.07.03,0,.07-.01.09-.05,0,0,.02-.01.03-.01,0,0,.02.02.02.03,0,.02,0,.04,0,.05,0,.31-.01.61-.02.92,0,.07,0,.15.02.22,0,.05,0,.09-.01.14-.01,0-.02,0-.03,0-.12-.09-.26-.12-.41-.14-.23-.03-.46-.06-.68-.08-.09,0-.19,0-.29,0,0,.05-.01.09,0,.13,0,.27.02.55.08.81.01.06.03.13.06.19.02.04.04.07.07.12-.01.02-.03.05-.05.08-.11,0-.21-.02-.31-.02-.2,0-.39,0-.59-.02-.12,0-.24-.03-.36.01-.02-.05-.02-.08,0-.12.12-.33.16-.69.19-1.04,0-.05,0-.1,0-.15-.02,0-.03,0-.05,0-.35,0-.69.02-1.03.09-.08.02-.16.04-.23.1-.03.02-.05.02-.09,0"/>
  <path d="M2.37,5.27l.58-.67c.1-.11.2-.19.31-.25.11-.05.23-.08.34-.08.11,0,.23.02.34.07.11.05.22.11.31.2.1.09.18.18.24.29.06.1.1.21.12.33.02.11,0,.23-.03.35-.04.12-.1.23-.2.35l-.58.67-1.44-1.25ZM3.05,5.21l.72.63.24-.27c.05-.06.08-.11.1-.17.02-.06.02-.11.02-.17,0-.06-.03-.11-.06-.16-.03-.05-.07-.1-.13-.15-.11-.09-.22-.14-.34-.14-.12,0-.22.05-.32.16l-.24.27Z"/>
  <polygon points="4.24 3.22 5.42 2.36 5.7 2.74 4.92 3.31 5.08 3.53 5.72 3.06 5.98 3.42 5.34 3.89 5.48 4.09 6.27 3.51 6.55 3.89 5.37 4.76 4.24 3.22"/>
  <polygon points="7 3.52 6.27 1.76 6.72 1.57 7.69 2.47 7.74 1.15 8.19 .96 8.92 2.72 8.47 2.9 8.13 2.08 8.08 2.99 7.79 3.11 7.1 2.5 7.45 3.33 7 3.52"/>
  <path d="M9.28,1.57c-.02-.14,0-.27.03-.39.04-.13.1-.24.17-.34.08-.1.18-.19.29-.25.11-.07.24-.11.38-.13.14-.02.27,0,.4.03.13.04.24.09.35.17.1.08.19.17.26.28.07.11.11.24.13.37.02.14,0,.27-.03.39-.04.13-.09.24-.17.34-.08.1-.18.19-.29.25-.11.07-.24.11-.38.13-.14.02-.27,0-.4-.03-.13-.04-.24-.09-.35-.17-.1-.08-.19-.17-.26-.28-.07-.11-.11-.23-.13-.37M9.77,1.5c0,.07.03.14.07.2.04.06.08.11.13.15.05.04.11.07.18.09.07.02.13.02.2.01.07,0,.14-.03.2-.07.06-.03.11-.08.15-.13.04-.05.07-.11.09-.18.02-.07.02-.14.01-.21,0-.07-.03-.14-.07-.2-.04-.06-.08-.11-.13-.15-.05-.04-.11-.07-.18-.09-.07-.02-.13-.02-.21-.01-.07,0-.14.03-.19.07-.06.03-.11.08-.15.13-.04.05-.07.11-.09.18-.02.07-.02.14-.01.21"/>
  <polygon points="13.31 .37 14.95 .7 14.85 1.17 14.27 1.05 13.98 2.45 13.5 2.35 13.79 .95 13.21 .83 13.31 .37"/>
  <polygon points="15.86 .95 17.2 1.53 17.01 1.97 16.11 1.58 16 1.83 16.74 2.15 16.56 2.55 15.83 2.23 15.73 2.45 16.62 2.85 16.43 3.28 15.09 2.69 15.86 .95"/>
  <path d="M19,2.64l-.52,1.99-.43-.32.08-.29-.6-.45-.25.16-.43-.32,1.75-1.07.39.29ZM18.44,3l-.5.32.34.25.17-.57Z"/>
  <polygon points="18.88 4.9 20.36 3.71 20.67 4.09 20.08 5.27 21.36 4.94 21.67 5.33 20.19 6.52 19.88 6.14 20.58 5.58 19.69 5.79 19.49 5.54 19.88 4.72 19.19 5.28 18.88 4.9"/>
  <path d="M.93,13.08h0s-.03,0-.04.02c-.01.01-.02.03-.03.05,0,.02-.02.04-.02.07,0,.03,0,.06,0,.1,0,.06.02.11.04.13.02.02.04.03.06.03.03,0,.05-.02.07-.06.02-.04.03-.1.05-.18.01-.06.02-.11.04-.17.02-.06.04-.12.07-.17.03-.05.07-.1.11-.13.05-.04.1-.06.17-.07.06,0,.12,0,.18.02.05.02.1.05.14.09.04.04.08.09.1.15.03.06.05.13.05.21,0,.08,0,.15,0,.22-.01.07-.03.13-.07.18-.03.05-.07.1-.12.13-.05.03-.11.06-.17.06h-.02s-.04-.33-.04-.33h.01s.03,0,.05-.02c.02-.01.03-.03.04-.04.01-.02.02-.04.03-.07,0-.03,0-.06,0-.09,0-.06-.02-.1-.04-.12-.02-.02-.04-.03-.07-.03-.03,0-.05.02-.06.06-.01.04-.03.1-.05.18-.01.05-.02.1-.04.16-.02.06-.04.12-.07.17-.03.05-.07.1-.12.14-.05.04-.11.07-.18.07-.06,0-.12,0-.18-.02-.05-.02-.1-.05-.14-.1-.04-.04-.07-.1-.1-.16-.02-.06-.04-.13-.05-.21,0-.08,0-.16,0-.23,0-.07.03-.13.06-.19.03-.05.07-.1.11-.13.05-.04.1-.06.17-.06h.02s.04.33.04.33Z"/>
  <polygon points="2.01 14.17 2.1 14.51 1.65 14.63 2.21 14.91 2.33 15.33 1.63 14.98 1.05 15.72 .93 15.31 1.32 14.82 1.2 14.76 .81 14.87 .71 14.54 2.01 14.17"/>
  <rect x="1.25" y="15.98" width="1.34" height=".34" transform="translate(-6.08 1.99) rotate(-22.66)"/>
  <path d="M2.12,17.25h0s-.02.02-.03.04c0,.02-.01.03-.01.06,0,.02,0,.05,0,.08,0,.03.02.06.04.09.03.06.06.09.09.1.03.01.05.01.07,0,.03-.01.04-.04.04-.08,0-.04,0-.1-.02-.19-.01-.06-.02-.11-.03-.18,0-.06,0-.12,0-.18,0-.06.02-.11.05-.17.03-.05.07-.09.13-.13.06-.03.11-.05.17-.05.06,0,.11,0,.17.03.05.02.11.06.15.1.05.05.09.1.13.17.04.07.06.14.08.2.02.07.02.13,0,.19,0,.06-.03.12-.06.17-.03.05-.08.09-.14.12h-.02s-.16-.28-.16-.28h.01s.03-.03.04-.04c.01-.02.02-.03.02-.06,0-.02,0-.05,0-.07,0-.03-.02-.06-.03-.09-.03-.05-.06-.08-.09-.1-.03-.01-.05-.01-.07,0-.02.01-.03.04-.03.08,0,.04,0,.1.02.18,0,.05.02.1.02.17,0,.06,0,.12,0,.19,0,.06-.02.12-.05.18-.03.06-.07.1-.14.14-.06.03-.11.05-.17.05-.06,0-.11-.01-.16-.04-.05-.03-.1-.06-.15-.11-.05-.05-.09-.11-.13-.17-.04-.07-.07-.14-.09-.21-.02-.07-.02-.14-.02-.2,0-.06.02-.12.05-.17.03-.05.07-.09.13-.12h.01s.16.28.16.28Z"/>
  <path d="M3.56,19.47c-.06.01-.13.02-.19.01-.06,0-.13-.02-.19-.04-.06-.02-.12-.05-.17-.09-.05-.04-.1-.09-.15-.14-.06-.08-.1-.16-.13-.25-.02-.09-.03-.18-.02-.27,0-.09.04-.18.08-.26.04-.08.1-.15.18-.21.08-.06.16-.1.25-.12.09-.02.18-.03.27-.02.09.01.18.04.26.09.08.05.15.11.21.18.04.05.08.11.1.17.02.06.04.12.05.19,0,.06,0,.13,0,.19,0,.06-.03.12-.05.18l-.3-.16c.03-.06.04-.12.03-.19,0-.07-.03-.13-.08-.18-.03-.04-.07-.07-.11-.09-.04-.02-.09-.04-.13-.04-.05,0-.09,0-.14.01-.05.01-.09.03-.13.07-.04.03-.07.07-.09.11-.02.04-.04.09-.04.13,0,.05,0,.09.01.14.01.05.03.09.07.13.04.06.1.1.16.12.06.02.13.03.19.02l.09.33Z"/>
  <polygon points="5.5 20 4.6 21 4.35 20.77 4.68 20.4 4.27 20.03 3.94 20.4 3.69 20.17 4.58 19.18 4.84 19.4 4.49 19.79 4.9 20.16 5.24 19.77 5.5 20"/>
  <path d="M6.9,20.97l-.4.64c-.05.07-.1.13-.16.18-.06.05-.13.08-.2.1-.07.02-.15.02-.23,0-.08-.01-.16-.05-.25-.1-.09-.05-.15-.12-.2-.18-.05-.07-.08-.14-.09-.21-.01-.07-.01-.15,0-.23.02-.08.05-.15.1-.22l.4-.64.29.18-.39.62c-.05.08-.07.16-.06.23.01.07.05.13.13.17.08.05.15.06.21.04.07-.02.13-.07.18-.15l.39-.62.29.18Z"/>
  <polygon points="7.31 21.22 7.63 21.36 7.22 22.28 7.81 22.54 7.68 22.84 6.77 22.45 7.31 21.22"/>
  <polygon points="8.61 21.78 9.6 22.06 9.51 22.38 8.85 22.2 8.8 22.38 9.34 22.53 9.26 22.83 8.72 22.68 8.67 22.85 9.33 23.03 9.24 23.35 8.25 23.07 8.61 21.78"/>
  <path d="M14.02,22.14l.8,1.21-.37.08-.11-.18-.52.11-.03.21-.37.08.26-1.42.33-.07ZM13.94,22.61l-.07.42.29-.06-.22-.36Z"/>
  <polygon points="15.41 23.2 14.93 21.95 15.2 21.84 16.03 22.32 15.76 21.62 16.08 21.5 16.56 22.75 16.29 22.86 15.46 22.38 15.74 23.07 15.41 23.2"/>
  <path d="M16.53,21.31l.53-.32c.09-.05.18-.09.26-.1.09-.01.17,0,.25.02.08.03.15.07.21.12.06.06.12.12.17.2.05.08.08.16.1.24.02.08.02.17,0,.24-.01.08-.05.15-.1.23-.05.07-.12.13-.21.19l-.53.32-.69-1.15ZM17,21.42l.35.58.22-.13s.08-.06.1-.09c.02-.03.04-.07.05-.11,0-.04,0-.08,0-.12,0-.04-.03-.08-.05-.13-.05-.09-.12-.14-.19-.17-.08-.03-.16-.01-.25.04l-.22.13Z"/>
  <polygon points="17.99 20.43 18.78 19.77 18.99 20.03 18.46 20.47 18.59 20.61 19.02 20.25 19.22 20.49 18.79 20.85 18.9 20.99 19.42 20.55 19.64 20.8 18.84 21.46 17.99 20.43"/>
  <path d="M19.56,18.98c.06-.06.12-.11.18-.14.06-.03.12-.05.18-.05.06,0,.12.01.18.03.06.02.11.06.16.1.04.03.07.07.09.1.03.04.05.08.06.12.01.04.02.09.02.13,0,.05,0,.09-.02.14l.5.05-.27.31-.44-.05-.12.13.27.24-.23.26-1.01-.89.43-.49ZM19.59,19.42l.27.24.19-.22s.04-.05.05-.08c0-.02.01-.05,0-.07,0-.02,0-.04-.02-.06-.01-.02-.03-.04-.04-.05-.04-.03-.08-.05-.13-.05-.04,0-.09.02-.14.08l-.19.22Z"/>
  <polygon points="21.34 18.98 20.2 18.28 20.38 17.98 21.3 18.09 20.78 17.32 20.96 17.03 22.1 17.72 21.93 18.02 21.39 17.69 21.74 18.23 21.62 18.42 20.98 18.36 21.52 18.68 21.34 18.98"/>
  <path d="M21.48,15.87l1.45-.02-.14.35h-.21s-.19.49-.19.49l.16.14-.14.35-1.05-.99.12-.32ZM21.83,16.19l.31.28.11-.27h-.42Z"/>
  <polygon points="21.73 15.26 22 14.11 22.32 14.19 22.23 14.59 23.21 14.83 23.13 15.16 22.15 14.93 22.05 15.34 21.73 15.26"/>
  <polygon points="22.08 13.78 22.18 12.61 22.51 12.63 22.47 13.05 23.48 13.13 23.45 13.47 22.45 13.39 22.41 13.81 22.08 13.78"/>
  <path d="M22.12,8.42c0,.11-.09.19-.21.19s-.21-.09-.21-.19.09-.19.21-.19.21.09.21.19"/>
  <path d="M23.39,10.02c0,.11-.09.19-.21.19s-.21-.09-.21-.19.09-.19.21-.19.21.09.21.19"/>
  <path d="M22.12,9.73c0,.11-.09.19-.21.19s-.21-.09-.21-.19.09-.19.21-.19.21.09.21.19"/>
  <path d="M23.39,8.67c0,.11-.09.19-.21.19s-.21-.09-.21-.19.09-.19.21-.19.21.09.21.19"/>
  <path d="M1.9,8.4c0,.11.09.19.21.19s.21-.09.21-.19-.09-.19-.21-.19-.21.09-.21.19"/>
  <path d="M.62,10c0,.11.09.19.21.19s.21-.09.21-.19-.09-.19-.21-.19-.21.09-.21.19"/>
  <path d="M1.89,9.71c0,.11.09.19.21.19s.21-.09.21-.19-.09-.19-.21-.19-.21.09-.21.19"/>
  <path d="M.62,8.64c0,.11.09.19.21.19s.21-.09.21-.19-.09-.19-.21-.19-.21.09-.21.19"/>
</svg>