<?xml version="1.0" encoding="UTF-8"?>
<svg id="Layer_1" xmlns="http://www.w3.org/2000/svg" version="1.1" viewBox="0 0 24 24">
  <!-- Generator: Adobe Illustrator 29.0.1, SVG Export Plug-In . SVG Version: 2.1.0 Build 192)  -->
  <defs>
    <style>
      .st0 {
        fill: #fabf2e;
      }

      .st1 {
        fill: #c52929;
      }

      .st2 {
        fill: #1e88e4;
      }

      .st3 {
        fill: #4daf50;
      }

      .st4 {
        fill: #e43936;
      }
    </style>
  </defs>
  <path class="st0" d="M21.99,3.5c2.43.66,1.96,2.53,1.98,4.39l-5.72,3.9v-6.52c.93-.63,1.76-1.46,2.9-1.77h.84Z"/>
  <path class="st1" d="M2.04,3.5C-.41,4.17.03,7.07.03,7.89l5.64,3.9.1-6.52c-.93-.63-1.76-1.46-2.9-1.77h-.84Z"/>
  <path class="st4" d="M18.26,5.27v6.52h0l-6.28,4.38-6.3-4.38.1-6.52,6.27,4.31h0c2-1.45,4.16-2.92,6.21-4.31Z"/>
  <path class="st3" d="M23.98,7.89c.04,3.76-.02,7.53,0,11.29-.06.57-.87,1.32-1.48,1.32h-4.23v-8.71l5.72-3.9Z"/>
  <path class="st2" d="M5.67,11.79s0,.05,0,.07c0,2.88,0,5.76,0,8.64H1.36c-.48,0-1.27-.78-1.33-1.24V7.89s5.64,3.9,5.64,3.9Z"/>
</svg>