<?xml version="1.0" encoding="UTF-8"?>
<svg id="Layer_1" xmlns="http://www.w3.org/2000/svg" version="1.1" viewBox="0 0 24 24">
  <path d="M14.66.44l-3.84,4.56s.02,0,.03-.01c1.6-.55,3.4.15,4.22,1.63.18.32.32.68.38,1.05.07.45.09.77.01,1.22v.02s3.83-4.56,3.83-4.56c-1-1.83-2.65-3.22-4.62-3.9,0,0,0,0,0,0Z"fill="#4285f4"/>
  <path d="M8.55,7.71l-3.96,4.71c.72,1.54,1.82,2.86,2.87,4.18.25.31.49.62.74.94l4.98-5.93h-.03c-1.74.61-3.69-.28-4.39-1.98-.1-.23-.17-.47-.21-.72-.06-.44-.08-.76,0-1.2,0,0,0,0,0,0Z"fill="#fbbc04"/>
  <path d="M19.53,4.8c1.21,2.61.94,5.68-.41,8.17-1.1,2.05-2.74,3.74-4.1,5.61-.62.86-1.24,1.75-1.67,2.73-.14.33-.26.66-.38.99-.12.33-.22.67-.34,1.01-.11.31-.24.68-.63.69h0c-.47,0-.58-.53-.69-.89-.28-.87-.58-1.71-1.02-2.52-.51-.94-1.15-1.82-1.79-2.67l11.03-13.12Z"fill="#188038"/>
  <path d="M9.47,5.87L14.16.29h-.05C13.42.09,12.7,0,11.99,0c-2.35.02-4.59,1.02-6.17,2.77l-.02.02,3.66,3.08Z"fill="#1967d2"/>
  <path d="M9.16,6.23l-.06-.05s-3.61-3.04-3.61-3.04h0c-1.95,2.47-2.28,5.88-1.12,8.77"fill="#ea4436"/>
</svg>
