<?xml version="1.0" encoding="UTF-8"?>
<svg id="Layer_1" xmlns="http://www.w3.org/2000/svg" version="1.1" viewBox="0 0 24 24">
  <!-- Generator: Adobe Illustrator 29.0.1, SVG Export Plug-In . SVG Version: 2.1.0 Build 192)  -->
  <defs>
    <style>
      .st0 {
        fill: #070707;
      }

      .st1 {
        fill: #aa9763;
      }

      .st2 {
        fill: #e42510;
      }

      .st3 {
        fill: #0273ba;
      }
    </style>
  </defs>
  <path class="st1" d="M.24,12c0-6.5,5.24-11.73,11.74-11.75,6.49-.01,11.82,5.28,11.76,11.86-.06,6.42-5.29,11.64-11.76,11.63-6.5,0-11.75-5.25-11.75-11.75ZM11.96,23.51c6.19.03,11.38-4.89,11.54-11.21.17-6.38-4.89-11.77-11.45-11.81C5.65.46.62,5.56.48,11.74c-.15,6.4,5,11.76,11.48,11.77Z"/>
  <path class="st1" d="M12.01,2.91c5,0,9.05,4.05,9.05,9.06,0,5.01-4.04,9.05-9.07,9.06-5.01,0-9.06-4.04-9.07-9.06,0-5.03,4.13-9.11,9.09-9.06ZM4.87,6.81c.06.02.1-.02.14-.04,1.91-1.03,4-1.39,6.14-1.49,1.07-.05,2.14,0,3.2.12,1.11.13,2.19.36,3.24.74.52.19,1.01.43,1.5.67,0,0,.02.02.02.02.03-.02,0-.03,0-.04-.13-.29-.36-.51-.57-.74-2.06-2.2-4.59-3.16-7.59-2.84-2.05.22-3.78,1.11-5.24,2.56-.32.31-.63.64-.85,1.03-.02,0-.04,0-.01.03,0-.01,0-.02.01-.03ZM11.98,20.76c.06-.03.1-.06.14-.08,1.23-.74,2.32-1.65,3.3-2.69.13-.14.18-.28.18-.46,0-2.55,0-5.09,0-7.64,0-.08.02-.16-.04-.23h-7.18c0,.05-.01.09-.01.12,0,2.62,0,5.25,0,7.87,0,.09.03.16.09.23.36.42.76.79,1.17,1.16.72.65,1.51,1.21,2.35,1.72ZM4.44,8.08h15.08c-.02-.22.05-.42.01-.62-.06-.09-.14-.13-.21-.19-.62-.43-1.31-.73-2.02-.97-1.72-.6-3.51-.78-5.32-.8-.7,0-1.4.03-2.09.11-1.27.14-2.51.39-3.69.86-.62.25-1.23.54-1.76.95v.65ZM19.82,7.95c-.19,2.58-.85,5.01-2.11,7.28-1.27,2.27-3.02,4.08-5.25,5.52,2.57-.06,5.63-1.55,7.23-4.51,1.48-2.73,1.47-5.51.12-8.29ZM4.18,7.92c-1.35,2.43-1.49,6.03.49,8.97.77,1.13,1.74,2.05,2.93,2.73,1.19.68,2.47,1.07,3.84,1.13-4.56-3.06-6.85-7.39-7.27-12.82ZM6.81,15.6v-5.95h-2.21c.35,2.14,1.05,4.13,2.21,5.95ZM17.17,9.65v5.97c1.15-1.83,1.87-3.82,2.2-5.97h-2.2ZM7.07,9.65c0,.06-.02.1-.02.13,0,2.05,0,4.11,0,6.16,0,.09.03.17.08.24.28.41.58.81.9,1.2.03.03.05.09.12.06v-7.79h-1.07ZM16.9,9.64c-.35,0-.71-.02-1.05.02v7.78c.07,0,.09-.04.11-.07.31-.36.58-.74.85-1.12.09-.13.13-.26.13-.42,0-1.97,0-3.95,0-5.92,0-.08.02-.16-.04-.27Z"/>
  <path class="st0" d="M14.1,22.82c-.11.04-.2.05-.31.04-.03-.23-.07-.47-.1-.7-.02,0-.04,0-.06,0-.02.24-.04.48-.06.72-.08.05-.16.06-.26.05-.09-.25-.18-.5-.27-.75h-.05c.03.26.06.52.09.77-.09.06-.18.04-.29.07-.06-.48-.12-.93-.19-1.4.17-.05.32-.06.49-.06.08.24.16.48.24.72.02,0,.04,0,.05,0,.02-.25.03-.5.05-.75.15-.05.3-.06.48-.07.06.47.12.93.18,1.39Z"/>
  <path class="st0" d="M8.22,20.86c.14.01.25.07.36.12.04.22-.06.44.01.69.15-.18.15-.4.27-.58.09.03.17.06.28.1-.16.45-.32.88-.49,1.33-.14-.02-.25-.07-.36-.13.01-.26.03-.53.04-.79-.02,0-.03-.01-.05-.02-.09.23-.17.46-.26.69-.11.02-.18-.03-.29-.09.16-.44.32-.87.48-1.31ZM8.56,21.67s.02.02.04,0c-.01-.02-.02-.02-.04,0Z"/>
  <path class="st0" d="M11.77,23c-.11.02-.21.03-.3,0v-1.39c.23,0,.44,0,.65,0,.13,0,.23.08.26.22.05.19.02.35-.14.48.23.2.11.46.18.71-.13,0-.23.02-.31,0-.16-.17.1-.52-.28-.58-.07.2-.02.39-.05.57ZM11.82,21.85c0,.12-.07.24.02.35.14,0,.23-.06.22-.2,0-.14-.1-.17-.24-.15Z"/>
  <path class="st0" d="M5.3,3.24s.05-.04.1-.04c.02-.02.05-.05.07-.07.2.22.4.44.61.66,0,0,.02,0,.03-.01-.12-.27-.24-.55-.36-.81.04-.08.11-.1.19-.16.21.22.41.44.62.65.02,0,.04-.02.06-.03-.12-.28-.23-.56-.35-.82.03-.06.07-.08.14-.11.18.44.36.88.54,1.3-.03.08-.09.1-.19.16-.19-.2-.39-.41-.6-.62-.02,0-.04.02-.06.03.11.27.23.53.34.79-.04.07-.09.1-.16.12-.33-.34-.65-.69-.99-1.04ZM6.11,3.83s-.03-.02-.04,0c.01.02.03.02.04,0ZM6.58,3.49s.03.02.04,0c-.01-.02-.03-.02-.04,0ZM6.11,3.32s.03.02.04,0c-.01-.02-.03-.02-.04,0Z"/>
  <path class="st0" d="M9.01,22.63c.11-.47.21-.92.32-1.37.22.02.42.07.61.14.17.06.23.2.23.37,0,.27-.07.52-.18.76-.08.17-.22.24-.4.22-.19-.03-.37-.07-.58-.12ZM9.64,22.45c.14-.25.22-.51.18-.8-.07-.03-.12-.1-.22-.05-.06.27-.13.55-.19.82.07.06.13.07.23.03Z"/>
  <path class="st0" d="M14.41,21.29c.1-.03.23-.06.37-.11.24.42.48.84.73,1.28-.13.04-.23.07-.33.1l-.13-.22-.31.08v.25c-.1.05-.19.08-.33.09v-1.46ZM14.68,21.56l.03.55s0,0,0,0l.17-.07h0s-.16-.41-.21-.48h0Z"/>
  <path class="st0" d="M7.47,22.04c-.13-.02-.21-.07-.31-.14.02-.08.03-.15.05-.23-.07-.09-.16-.12-.27-.16-.06.06-.11.12-.18.19-.09-.05-.19-.09-.31-.16.33-.38.65-.74.98-1.11.13.07.24.12.38.2-.11.47-.22.94-.33,1.41ZM7.31,21.35c.04-.14.08-.28.12-.43-.02,0-.03-.01-.05-.02-.09.12-.18.24-.27.36.06.06.11.1.2.09Z"/>
  <path class="st0" d="M11.16,22.13c.02.1,0,.17-.02.25-.14.04-.28-.04-.42-.01-.05.09-.04.18-.06.29.17.03.32.05.47.07.05.09.01.17-.02.27-.27-.03-.53-.06-.83-.1.06-.47.11-.94.17-1.41.28.03.53.06.78.09.05.09.02.17,0,.25-.15.04-.3-.04-.45-.01-.06.07-.05.15-.03.26.13.02.26.04.41.06Z"/>
  <path class="st0" d="M15.99,1.75c-.08.19-.14.35-.21.51.12.1.27.13.41.2.12-.15.14-.34.24-.49.07-.02.1.02.17.05-.18.43-.36.86-.53,1.28-.08.03-.12,0-.17-.06.08-.19.16-.39.24-.59-.13-.1-.28-.13-.42-.21-.09.21-.18.41-.26.59-.07.03-.12,0-.17-.06.17-.42.35-.84.52-1.25.08-.05.12.01.18.03Z"/>
  <path class="st0" d="M16.06,20.89c.07-.06-.06-.11.05-.22.2-.1.45-.24.71-.37.1.04.1.14.15.2-.05.1-.17.1-.23.2.16.32.33.64.5.96-.07.1-.17.12-.29.18-.18-.33-.35-.66-.53-1-.08.04-.16.07-.23.1-.06.03-.06-.1-.13-.05h0Z"/>
  <path class="st0" d="M16.06,20.89c-.09.02,0,.1-.1.16-.02.01-.09.05-.18.09.14.35.27.69.41,1.05-.1.04-.19.08-.31.13-.14-.35-.28-.7-.41-1.04-.11-.03-.18.06-.27.05-.07-.05-.07-.14-.11-.24.29-.11.56-.22.79-.31.14-.02.09.14.2.1,0,0,0,0,0,0Z"/>
  <path class="st0" d="M11.42,1.61c.13-.2.27-.4.4-.59.06-.03.12-.04.2,0-.13.19-.25.38-.39.59.16.26.31.52.47.77-.07.05-.13.04-.2.02-.12-.19-.24-.39-.38-.6-.25.18-.09.43-.15.63-.05.03-.09.03-.18,0v-1.39s.07-.02.14.02c.01.18.02.36.03.54.02,0,.03.01.05.02Z"/>
  <path class="st0" d="M17.57,2.74c-.07.35-.21.66-.5.89-.13.11-.29.1-.44.02-.15-.08-.24-.22-.21-.39.05-.35.22-.64.48-.88.13-.11.29-.11.44-.03.15.08.23.21.22.39ZM16.59,3.28c0,.14.04.21.14.25.1.05.19.02.25-.05.2-.21.33-.46.41-.74.03-.1-.02-.18-.11-.24-.08-.05-.17-.06-.24,0-.24.21-.37.5-.45.77Z"/>
  <path class="st0" d="M13.34,2.07s.08,0,.12,0c.04.05.02.11.02.16.01.13.1.18.21.2.11.02.2-.02.25-.12.06-.11.04-.21-.05-.29-.08-.06-.17-.11-.25-.16-.2-.13-.26-.3-.18-.51.07-.18.25-.26.46-.22.25.05.32.15.32.42-.05.06-.1.02-.16.01-.01-.07-.03-.13-.04-.19-.13-.11-.26-.16-.37,0-.11.15-.04.27.1.36.05.03.11.06.17.1.23.14.29.34.18.56-.1.2-.33.27-.6.17-.2-.08-.26-.22-.19-.49Z"/>
  <path class="st0" d="M10.84,1.42c-.05.01-.09.02-.14.03-.04-.07-.08-.12-.12-.18-.15-.04-.3-.05-.34.13-.05.19.08.27.24.31.09.02.18.03.27.06.15.05.22.17.24.32.02.15-.02.28-.15.38-.31.22-.64.08-.71-.3.03-.05.08-.05.12-.04.06.03.05.09.07.13.05.12.13.16.25.15.12-.02.2-.08.22-.2.02-.13-.04-.22-.16-.27-.09-.03-.19-.05-.29-.08-.24-.07-.34-.2-.31-.44.02-.2.17-.32.4-.34.24-.02.33.06.4.34Z"/>
  <path class="st0" d="M18.59,3.37c0,.3-.39.84-.67.93-.29.09-.59-.15-.53-.45.07-.36.28-.66.6-.85.27-.16.6.05.6.36ZM17.55,3.94c0,.09.04.15.12.19.09.06.18.04.26-.03.22-.19.39-.41.48-.69.06-.17-.11-.33-.28-.28-.18.05-.59.61-.58.81Z"/>
  <path class="st0" d="M7.51,3.02s.09-.04.12-.06c.07.02.09.08.12.12.08.09.16.1.27.06.1-.04.17-.11.16-.23,0-.12-.06-.2-.18-.23-.1-.03-.2,0-.3,0-.29.02-.46-.13-.46-.4,0-.23.24-.42.49-.4.15.01.22.11.28.23-.03.05-.07.07-.12.07-.05,0-.07-.05-.1-.08-.08-.08-.17-.07-.25-.02-.08.04-.13.11-.11.21.02.1.07.18.17.19.1.01.21,0,.32,0,.26,0,.4.1.45.33.04.22-.07.4-.32.48-.23.08-.36.03-.49-.2-.01-.02-.02-.04-.04-.08Z"/>
  <path class="st0" d="M5.25,3.74c-.01.05-.05.08-.1.11-.08,0-.13-.11-.23-.08-.12.04-.21.11-.19.25.02.14.12.21.26.2.08,0,.16-.05.24-.07.28-.1.44-.06.57.16.11.2.04.42-.18.57-.2.14-.35.11-.55-.11,0-.07.05-.1.12-.12.1.1.22.2.38.07.09-.08.13-.17.08-.28-.05-.11-.14-.17-.26-.15-.1.02-.2.07-.3.1-.22.07-.39,0-.49-.18-.1-.19-.04-.39.16-.54.18-.12.31-.1.49.07Z"/>
  <path class="st0" d="M8.51,2.6s.08-.05.14-.05c.07.13.14.29.35.22.1-.04.17-.11.18-.22,0-.12-.05-.2-.17-.24-.1-.03-.2-.03-.3-.03-.25,0-.38-.12-.41-.35-.02-.21.09-.36.31-.42.25-.07.35-.02.47.23-.02.06-.07.07-.13.07-.08-.05-.12-.2-.26-.16-.1.03-.19.08-.2.19,0,.11.04.19.14.24.09.04.18.03.27.03.3,0,.44.13.46.39.02.22-.13.38-.41.44-.24.05-.36-.04-.45-.34Z"/>
  <path class="st0" d="M15.37,1.96c-.05-.02-.09-.03-.13-.04-.05-.05-.02-.1-.02-.15,0-.11-.06-.17-.16-.21-.1-.04-.19,0-.24.08-.16.25-.24.53-.25.83,0,.11.07.19.18.22.1.03.18-.01.24-.1.03-.05.06-.11.09-.16.07-.02.11,0,.16.04-.1.3-.26.43-.5.38-.26-.06-.38-.24-.33-.55.03-.25.1-.49.24-.7.14-.2.35-.25.56-.14.19.09.24.23.17.51Z"/>
  <path class="st0" d="M18.76,4.99c0,.07-.03.1-.11.12-.17-.15-.35-.31-.54-.48.32-.36.63-.71.93-1.04.08,0,.1.06.16.1-.28.31-.55.62-.83.94.14.13.27.25.4.37Z"/>
  <path class="st0" d="M12.47,2.4c-.09.05-.14.04-.15.03,0-.45,0-.88,0-1.31,0-.09.04-.13.15-.11v1.38Z"/>
  <path class="st0" d="M7.51,3.51c-.05.06-.09.08-.16.08-.22-.4-.43-.8-.65-1.2.02-.08.08-.09.15-.1.22.4.44.81.66,1.22Z"/>
  <path class="st2" d="M11.98,20.76c-.84-.51-1.63-1.08-2.35-1.72-.41-.37-.81-.74-1.17-1.16-.06-.07-.09-.14-.09-.23,0-2.62,0-5.25,0-7.87,0-.03,0-.07.01-.12h7.18c.06.08.04.16.04.23,0,2.55,0,5.09,0,7.64,0,.18-.05.32-.18.46-.99,1.04-2.08,1.95-3.3,2.69-.04.03-.09.05-.14.08ZM9.01,13.52v1.97h2.01v1.99h1.96v-2h1.99v-1.97h-2v-1.98h-1.97v1.99h-1.98Z"/>
  <path class="st3" d="M4.44,8.08v-.65c.53-.42,1.13-.71,1.76-.95,1.19-.47,2.43-.72,3.69-.86.7-.08,1.39-.11,2.09-.11,1.81.01,3.6.2,5.32.8.71.25,1.39.55,2.02.97.08.05.16.1.21.19.04.2-.03.4-.01.62H4.44Z"/>
  <path class="st2" d="M6.81,15.6c-1.16-1.82-1.86-3.8-2.21-5.95h2.21v5.95Z"/>
  <path class="st2" d="M17.17,9.65h2.2c-.34,2.15-1.05,4.14-2.2,5.97v-5.97Z"/>
  <path class="st1" d="M9.01,13.52h1.98v-1.99h1.97v1.98h2v1.97h-1.99v2h-1.96v-1.99h-2.01v-1.97ZM11.25,13.77h-2v1.48h2v1.99h1.5v-2h1.98v-1.49h-2v-2h-1.49v2.02Z"/>
</svg>