<?xml version="1.0" encoding="UTF-8"?>
<svg id="Layer_1" xmlns="http://www.w3.org/2000/svg" version="1.1" viewBox="0 0 24 24">
  <!-- Generator: Adobe Illustrator 29.0.1, SVG Export Plug-In . SVG Version: 2.1.0 Build 192)  -->
  <path d="M2.22,13.86c-.1-.51-.16-1.04-.18-1.57-.02-.56,0-1.08.07-1.6l.07-.57-1.91-.24-.14,1.74v.65c.02.51.07,1.04.16,1.58l.17.95,1.87-.37-.11-.56h0Z"/>
  <path d="M21.25,15.69h0c-.22.52-.48,1.02-.76,1.48-.28.46-.6.89-.96,1.3-.35.4-.74.78-1.15,1.13-.27.23-.56.44-.87.65l-2.01-3.41h2.28l-3.21-5.63h2.31L12,2.83l-4.87,8.38h2.32l-3.22,5.63h2.25l-1.99,3.4c-.31-.2-.6-.42-.88-.65-.42-.35-.82-.74-1.19-1.17-.36-.42-.69-.87-.98-1.35-.28-.47-.53-.98-.74-1.5l-.21-.54-1.77.7.21.53c.33.86.76,1.67,1.28,2.41.51.73,1.11,1.41,1.8,2.03.9.82,1.8,1.42,2.73,1.84l.47.21,4.57-7.82h-2.29l2.51-4.39,2.5,4.39h-2.33l4.64,7.86.48-.25c.66-.34,1.27-.72,1.84-1.14.57-.43,1.09-.9,1.57-1.41s.91-1.07,1.29-1.66c.38-.6.72-1.24,1.01-1.92l.23-.54-1.76-.72-.22.52v.02ZM12,6.6l1.58,2.71h-3.15s1.57-2.71,1.57-2.71Z"/>
  <path d="M8.11,23.19l.68.22c1.13.37,2.17.55,3.22.55.55,0,1.1-.05,1.63-.14.54-.09,1.07-.24,1.59-.42l.65-.23-3.88-6.6-3.89,6.63h0ZM12.99,21.99c-.66.09-1.32.09-1.98,0l.99-1.68.99,1.68Z"/>
  <path d="M16.88,3.21c.53.29,1.03.64,1.51,1.04l.44.37,1.21-1.46-.44-.37c-.57-.47-1.17-.88-1.79-1.23-.63-.35-1.3-.65-1.99-.88l-.55-.19-.61,1.8.54.18c.58.2,1.14.45,1.67.75h0Z"/>
  <path d="M19.74,5.61c.37.46.69.93.98,1.43.28.5.52,1.03.71,1.58l.19.54,1.79-.63-.19-.54c-.23-.65-.52-1.29-.85-1.88s-.72-1.17-1.16-1.7l-.36-.45-1.47,1.2.36.44h0Z"/>
  <path d="M5.34,4.49c.43-.38.88-.73,1.36-1.03.47-.3.98-.56,1.52-.78l.53-.22-.71-1.73-.52.19c-.48.17-1.21.56-1.96,1.03-.35.22-.67.44-.92.63-.31.24-.52.43-.64.59l-.28.38,1.19,1.33.43-.38h0Z"/>
  <path d="M23.73,10.2l-.17-.42-1.74.23.07.57c.07.57.1,1.14.08,1.7-.02.56-.09,1.13-.2,1.69l-.11.56,1.77.37.17-.47c.19-.54.25-1.78.26-2.15.02-.73.02-1.69-.14-2.08h.01Z"/>
  <path d="M9.83,2.17l.21-.04c.56-.11,1.13-.17,1.68-.19.56-.02,1.13.02,1.69.09l.57.08.27-1.88-.57-.08c-.67-.09-1.35-.12-2.01-.11-.66.02-1.34.09-2,.22l-.57.11.37,1.86.36-.07h0Z"/>
  <path d="M2.53,8.78h0c.17-.51.38-1,.62-1.47.24-.47.53-.92.85-1.35l.34-.46-1.52-1.14-.34.46c-.38.51-.72,1.05-1.01,1.61s-.54,1.14-.74,1.75l-.18.55,1.8.6.18-.54h0Z"/>
</svg>